<?xml version="1.0" encoding="utf-8"?>
<!-- Generator: Adobe Illustrator 26.0.3, SVG Export Plug-In . SVG Version: 6.00 Build 0)  -->
<svg version="1.1" id="Слой_1" xmlns="http://www.w3.org/2000/svg" xmlns:xlink="http://www.w3.org/1999/xlink" x="0px" y="0px"
	 viewBox="0 0 640 480" style="enable-background:new 0 0 640 480;" xml:space="preserve">
<g>
	<g>
		<path d="M53.73,183.45c14.52-31.1,32.66-60.51,54.04-87.37c5.98-7.52,12.21-14.83,18.67-21.94c-0.84-0.49-1.67-0.97-2.51-1.46
			c-4.84,22.82-8.78,45.83-12.16,68.91c-3.37,23.01-6.21,46.09-8.87,69.2c-2.67,23.21-5.16,46.44-7.85,69.65
			c-2.69,23.28-5.58,46.54-9.05,69.72c-3.43,22.95-7.44,45.82-12.36,68.49c-0.63,2.89-1.27,5.78-1.93,8.67
			c-0.43,1.88,2.46,2.68,2.89,0.8c5.18-22.74,9.4-45.69,13-68.73c3.58-22.97,6.56-46.02,9.29-69.1c2.75-23.2,5.25-46.43,7.87-69.65
			c2.64-23.3,5.4-46.58,8.67-69.8c3.24-22.99,6.98-45.91,11.58-68.66c0.59-2.9,1.19-5.8,1.8-8.69c0.29-1.37-1.44-2.64-2.51-1.46
			c-23.11,25.44-43.26,53.57-59.85,83.68c-4.74,8.6-9.18,17.35-13.33,26.24C50.33,183.68,52.91,185.2,53.73,183.45L53.73,183.45z"/>
	</g>
</g>
<g>
	<g>
		<path d="M52.87,188.13c12.86,10.61,25.55,21.43,38.07,32.44c3.6,3.17,7.19,6.36,10.76,9.56c1.43,1.28,3.56-0.83,2.12-2.12
			c-12.42-11.12-25.01-22.05-37.77-32.78c-3.67-3.09-7.36-6.16-11.06-9.21C53.52,184.79,51.38,186.9,52.87,188.13L52.87,188.13z"/>
	</g>
</g>
<g>
	<g>
		<path d="M126.34,76.21c3.14,0.18,6.28,0.35,9.43,0.53c1.51,0.08,3.03,0.17,4.54,0.25c1.25,0.07,3.14-0.04,3.87,1.23
			c0.57,0.99,0.29,2.51,0.16,3.58c-0.19,1.67-0.41,3.34-0.62,5.02c-0.4,3.22-0.8,6.45-1.2,9.67c-1.6,12.9-3.19,25.79-4.79,38.69
			c-3.22,26.03-6.44,52.06-9.66,78.09c-3.21,25.91-6.41,51.82-9.62,77.73c-3.22,26.03-6.44,52.06-9.66,78.09
			c-1.6,12.9-3.19,25.79-4.79,38.69c-0.4,3.22-0.8,6.45-1.2,9.67c-0.33,2.7-0.02,6.95-2.94,8.24c-2.76,1.22-5.85,1.91-8.73,2.83
			c-3.03,0.97-6.06,1.93-9.1,2.9s-6.06,1.93-9.1,2.9c-1.83,0.58-1.05,3.47,0.8,2.89c6.08-1.89,12.16-3.79,18.23-5.68
			c1.84-0.57,1.05-3.47-0.8-2.89c-6.08,1.89-12.16,3.79-18.23,5.68c0.27,0.96,0.53,1.93,0.8,2.89c6.4-2.04,12.8-4.08,19.2-6.12
			c2.8-0.89,5.85-1.56,8.5-2.83c2.31-1.11,3.32-3.2,3.7-5.65c1.03-6.58,1.65-13.24,2.47-19.85c0.83-6.69,1.65-13.37,2.48-20.06
			c3.34-26.99,6.68-53.97,10.02-80.96s6.68-53.97,10.02-80.96c3.34-26.99,6.68-53.97,10.02-80.96c1.67-13.49,3.34-26.99,5.01-40.48
			c0.41-3.34,0.83-6.69,1.24-10.03c0.38-3.05,1.04-6.2,1.07-9.27c0.02-2.27-0.82-4.42-3.01-5.37c-2.48-1.08-5.71-0.78-8.35-0.92
			c-3.26-0.18-6.52-0.36-9.77-0.55C124.41,73.11,124.42,76.11,126.34,76.21L126.34,76.21z"/>
	</g>
</g>
<g>
	<g>
		<path d="M126.7,253.9c20.17-6.16,40.33-12.33,60.5-18.49c1.84-0.56,1.06-3.46-0.8-2.89c-20.17,6.16-40.33,12.33-60.5,18.49
			C124.06,251.57,124.85,254.47,126.7,253.9L126.7,253.9z"/>
	</g>
</g>
<g>
	<g>
		<path d="M124.41,275.17c16.29-9.52,33.2-17.96,50.63-25.19c4.89-2.03,9.82-3.96,14.78-5.8c1.79-0.67,1.02-3.57-0.8-2.89
			c-17.78,6.6-35.13,14.38-51.86,23.32c-4.81,2.57-9.56,5.23-14.27,7.98C121.23,273.55,122.74,276.14,124.41,275.17L124.41,275.17z"
			/>
	</g>
</g>
<g>
	<g>
		<path d="M185.31,235.19c1.15,3.27,2.3,6.54,3.45,9.81c0.27,0.76,1.03,1.27,1.85,1.05c0.74-0.2,1.32-1.08,1.05-1.85
			c-1.15-3.27-2.3-6.54-3.45-9.81c-0.27-0.76-1.03-1.27-1.85-1.05C185.61,233.54,185.04,234.42,185.31,235.19L185.31,235.19z"/>
	</g>
</g>
<g>
	<g>
		<path d="M181.06,70.32c2.8,46.79,4.59,93.64,5.36,140.51c0.77,46.87,0.53,93.75-0.73,140.61c-0.71,26.3-1.74,52.58-3.08,78.86
			c-0.1,1.93,2.9,1.92,3,0c2.39-46.81,3.78-93.67,4.15-140.55c0.37-46.87-0.28-93.75-1.94-140.59c-0.93-26.29-2.19-52.57-3.76-78.83
			C183.94,68.4,180.94,68.39,181.06,70.32L181.06,70.32z"/>
	</g>
</g>
<g>
	<g>
		<path d="M183.24,71.65c13.96-1.06,27.92-2.15,41.89-3.18c1.29-0.09,2.86-0.35,3.73,0.83c0.65,0.9,0.64,2.22,0.57,3.28
			c-0.19,2.84-1.38,5.64-2.18,8.35c-1.88,6.37-3.62,12.78-5.23,19.22c-6.51,26-10.95,52.48-14.11,79.09
			c-3.17,26.71-5.03,53.56-6.37,80.43c-1.36,27.24-2.41,54.51-3.17,81.77c-0.77,27.91-0.82,55.91,1.95,83.73
			c0.35,3.5,0.75,7,1.18,10.5c0.37-0.48,0.73-0.96,1.1-1.45c-2.91,0.62-5.85,0.97-8.83,1c-1.38,0.01-2.76-0.03-4.13-0.15
			c-0.73-0.06-1.47-0.13-2.2-0.24c-0.3-0.03-0.6-0.08-0.9-0.14c-0.61-0.28-1.11-0.04-1.52,0.71c-0.23-0.3-0.46-0.6-0.69-0.9
			c0.01-0.13,0.02-0.26,0.03-0.39c-0.36,1.89,2.53,2.69,2.89,0.8c0.36-1.9-1.45-3.01-3.13-2.22c-2.02,0.95-1.41,3.41,0.26,4.38
			c1.06,0.61,2.36,0.69,3.55,0.83c1.71,0.2,3.43,0.31,5.16,0.32c3.47,0.02,6.92-0.39,10.32-1.11c0.57-0.12,1.18-0.83,1.1-1.45
			c-3.56-28.34-3.96-56.95-3.35-85.47c0.6-27.96,1.75-55.92,3.06-83.86c1.29-27.46,3.05-54.9,6.13-82.22
			c3.07-27.29,7.49-54.45,14.06-81.13c1.64-6.67,3.42-13.31,5.34-19.91c1.26-4.33,4.27-10.47,1.91-14.93
			c-1.19-2.24-3.47-2.86-5.86-2.72c-3.5,0.2-7,0.53-10.5,0.79c-7.16,0.54-14.33,1.09-21.49,1.63c-3.52,0.27-7.04,0.53-10.56,0.8
			C181.33,68.79,181.31,71.79,183.24,71.65L183.24,71.65z"/>
	</g>
</g>
<g>
	<g>
		<path d="M221.32,155.12c4.06,23.74,6.31,47.77,7.08,71.84c0.77,24.06,0.07,48.14-1.72,72.14c-1.8,24.25-4.7,48.4-8.34,72.44
			c-1.8,11.91-3.79,23.79-5.91,35.65c-1.05,5.87-2.13,11.74-3.25,17.6c-0.8,4.21-3.21,10.79,1.14,13.89
			c1.76,1.26,4.05,1.41,6.13,1.19c2.73-0.29,5.43-0.98,8.11-1.52c6.08-1.23,12.16-2.45,18.24-3.68c12.16-2.45,24.32-4.91,36.49-7.36
			c2.95-0.59,5.9-1.19,8.85-1.78c1.89-0.38,1.09-3.27-0.8-2.89c-11.98,2.42-23.96,4.83-35.93,7.25c-5.9,1.19-11.79,2.38-17.69,3.57
			c-2.95,0.59-5.9,1.19-8.85,1.78c-2.72,0.55-5.46,1.26-8.22,1.61c-1.97,0.25-4.74,0.31-5.59-1.92c-0.85-2.24,0.22-5.21,0.65-7.45
			c1.12-5.86,2.21-11.72,3.27-17.6c2.1-11.67,4.07-23.37,5.87-35.09c3.59-23.39,6.52-46.89,8.42-70.48
			c1.91-23.63,2.79-47.35,2.29-71.06c-0.5-23.51-2.39-47-5.95-70.26c-0.44-2.9-0.91-5.79-1.41-8.68
			C223.89,152.42,220.99,153.23,221.32,155.12L221.32,155.12z"/>
	</g>
</g>
<g>
	<g>
		<path d="M226.5,150.52c13.21-8.48,27.58-15.05,42.66-19.41c1.93-0.56,3.88-1.08,5.83-1.57c1.66-0.41,3.55-1.04,5.27-0.6
			c3.37,0.86,3.09,6.21,3.34,8.87c0.79,8.67,1.44,17.35,1.97,26.04c0.52,8.64,1.01,17.31,1.17,25.96c0.03,1.48,0.07,3.34-1.28,4.28
			c-1.35,0.94-3.41,1.04-4.99,1.31c-4.28,0.75-8.59,1.36-12.91,1.83c-4.29,0.47-8.6,0.81-12.91,1.03c-3.13,0.16-6.67,0.56-7.92,3.94
			c-0.63,1.72-0.46,3.69-0.45,5.49c0.01,2.16,0.02,4.33,0.03,6.49c0.02,4.33,0.04,8.65,0.07,12.98c0.09,17.56,0.18,35.12,0.27,52.68
			c0.01,2.16,0.02,4.33,0.03,6.49c0.01,1.93,3.01,1.93,3,0c-0.09-18.06-0.18-36.12-0.27-54.17c-0.05-8.92-0.25-17.86-0.13-26.78
			c0.02-1.7,0.31-3.18,2.11-3.73c1.73-0.53,3.68-0.41,5.47-0.51c4.39-0.26,8.78-0.66,13.14-1.19c4.34-0.53,8.66-1.17,12.96-1.96
			c1.63-0.3,3.3-0.67,4.61-1.75c1.39-1.14,1.95-2.82,2.12-4.55c0.19-1.97-0.01-4.01-0.08-5.99c-0.08-2.24-0.16-4.47-0.26-6.71
			c-0.19-4.47-0.41-8.94-0.67-13.41c-0.52-8.94-1.18-17.87-1.98-26.79c-0.3-3.36-0.15-7.54-2.23-10.4
			c-2.32-3.21-6.22-2.74-9.61-1.91c-15.69,3.84-30.83,10.04-44.72,18.27c-1.73,1.03-3.44,2.09-5.14,3.18
			C223.37,148.97,224.87,151.57,226.5,150.52L226.5,150.52z"/>
	</g>
</g>
<g>
	<g>
		<path d="M251.29,285.56c6.34-1.93,12.77-3.57,19.27-4.9c6.43-1.32,13.05-2.6,19.61-3.05c0.48-0.03,1.22-0.16,1.52,0.3
			c0.29,0.45,0.16,1.37,0.17,1.85c0.02,1.71,0.04,3.42,0.06,5.14c0.02,1.55,0.04,3.1,0.06,4.65c0.02,1.58,0.34,3.5,0.01,5.05
			c-0.26,1.25-1.69,1.26-2.75,1.39c-1.81,0.22-3.62,0.43-5.42,0.65c-3.29,0.39-6.57,0.78-9.86,1.18
			c-7.73,0.92-15.45,1.84-23.18,2.77c-1.89,0.23-1.92,3.23,0,3c7.73-0.92,15.45-1.84,23.18-2.77c3.78-0.45,7.56-0.9,11.34-1.35
			c1.72-0.21,3.46-0.37,5.17-0.63c1.37-0.2,2.72-0.62,3.61-1.73c0.95-1.19,0.95-2.68,0.93-4.13c-0.02-1.96-0.05-3.91-0.07-5.87
			c-0.02-1.79-0.04-3.59-0.07-5.38c-0.02-1.59,0.2-3.42-0.43-4.92c-1.41-3.36-5.96-2.03-8.7-1.68c-3.7,0.47-7.39,1.03-11.05,1.69
			c-8.18,1.47-16.26,3.43-24.21,5.85C248.65,283.23,249.44,286.12,251.29,285.56L251.29,285.56z"/>
	</g>
</g>
<g>
	<g>
		<path d="M248.34,305.91c0.14,23.37-1.34,46.7-4.24,69.89c-0.22,1.77-0.29,3.91,1.07,5.28c1.92,1.92,4.61,0.37,6.65-0.47
			c5.47-2.23,10.95-4.47,16.42-6.7c2.7-1.1,5.4-2.2,8.1-3.3c1.89-0.77,4.35-2.09,6.46-1.54c2.33,0.6,2.16,4.12,2.37,5.99
			c0.31,2.87,0.59,5.74,0.84,8.62c1.14,13.15,1.65,26.35,1.53,39.55c-0.02,1.93,2.98,1.93,3,0c0.1-11.71-0.28-23.43-1.17-35.11
			c-0.42-5.58-0.71-11.31-1.66-16.83c-0.39-2.24-1.55-4.27-3.8-5.02c-2.05-0.69-4.37-0.11-6.32,0.62c-5.36,2-10.63,4.32-15.93,6.49
			c-2.78,1.13-5.55,2.26-8.33,3.4c-1.23,0.5-2.47,1.01-3.7,1.51c-0.78,0.32-2.24,1.34-2.58,0.15c-0.24-0.84-0.07-1.79,0.04-2.63
			c0.19-1.47,0.37-2.94,0.55-4.41c0.35-2.94,0.68-5.88,0.98-8.83c0.59-5.73,1.08-11.46,1.48-17.21c0.91-13.13,1.32-26.29,1.24-39.45
			C251.33,303.98,248.33,303.97,248.34,305.91L248.34,305.91z"/>
	</g>
</g>
<g>
	<g>
		<path d="M296.45,71.43c4.6,23.08,7.01,46.51,8.56,69.97c1.55,23.39,2.44,46.83,3.27,70.25c1.68,47.27,2.49,94.58,2.43,141.88
			c-0.03,26.79-0.35,53.58-0.94,80.36c-0.04,1.93,2.96,1.93,3,0c1.06-47.78,1.23-95.57,0.51-143.35
			c-0.71-47.36-2.02-94.77-4.83-142.06c-1.55-26.1-4-52.19-9.11-77.86C298.97,68.74,296.08,69.54,296.45,71.43L296.45,71.43z"/>
	</g>
</g>
<g>
	<g>
		<path d="M301.77,68.54c6.05-0.85,12.1-1.71,18.15-2.56c3.14-0.44,6.27-0.89,9.41-1.33c2.38-0.34,5.87-1.18,7.45,1.24
			c1.17,1.79,0.99,4.28,0.88,6.31c-0.17,3.1-0.37,6.19-0.55,9.28c-0.35,6.19-0.69,12.38-1.01,18.57c-1.28,25-2.27,50.01-2.96,75.03
			c-0.68,24.9-1.07,49.82-1.17,74.73c-0.09,25.03,0.11,50.06,0.61,75.08c0.5,24.91,1.29,49.81,2.38,74.7
			c0.14,3.1,0.28,6.19,0.42,9.29c0.09,1.92,3.09,1.93,3,0c-1.19-25.57-2.08-51.16-2.65-76.76c-0.57-25.6-0.83-51.2-0.78-76.8
			c0.05-25.6,0.41-51.2,1.09-76.8c0.67-25.48,1.65-50.95,2.94-76.4c0.33-6.42,0.67-12.84,1.04-19.26c0.18-3.21,0.37-6.42,0.56-9.63
			c0.14-2.27,0.3-4.65-0.36-6.86c-0.6-2.04-1.91-3.75-3.91-4.55c-2.28-0.91-4.76-0.48-7.11-0.15c-6.28,0.88-12.55,1.77-18.82,2.66
			c-3.14,0.44-6.27,0.89-9.41,1.33C299.06,65.92,299.87,68.81,301.77,68.54L301.77,68.54z"/>
	</g>
</g>
<g>
	<g>
		<path d="M340.63,410.96c12.12,0.46,24.25-0.28,36.28-1.73c6-0.72,11.98-1.6,17.94-2.59c3-0.5,5.99-1.02,8.97-1.56
			c2.62-0.48,5.34-0.84,7.85-1.77c2.5-0.93,4.81-2.44,6.09-4.85c1.18-2.23,1.38-4.8,0.15-7.05c-0.93-1.69-3.52-0.18-2.59,1.51
			c0.93,1.7,0.28,3.76-0.91,5.17c-1.47,1.74-3.76,2.51-5.89,3.03c-5.22,1.26-10.62,2.01-15.92,2.87
			c-10.95,1.78-21.98,3.19-33.07,3.79c-6.3,0.34-12.6,0.42-18.9,0.18C338.7,407.89,338.7,410.89,340.63,410.96L340.63,410.96z"/>
	</g>
</g>
<g>
	<g>
		<path d="M311.24,442.24c26.09-0.48,52.13-2.89,77.86-7.18c12.88-2.15,25.68-4.78,38.36-7.88c2.9-0.71,5.99-1.24,8.77-2.33
			c2.62-1.03,4.16-2.98,4.45-5.8c0.32-3.07-0.19-6.35-0.47-9.41c-0.29-3.25-0.67-6.48-1.12-9.71c-0.77-5.49-1.35-12.98-7.75-14.79
			c-5.45-1.55-11.33,2.05-15.47,5.23c-0.65,0.5-0.98,1.28-0.54,2.05c0.36,0.64,1.41,1.03,2.05,0.54c3.33-2.57,8.06-5.85,12.52-5.08
			c5.39,0.93,5.61,8.13,6.22,12.36c0.44,3.04,0.79,6.1,1.06,9.16c0.27,2.93,0.64,5.94,0.54,8.88c-0.04,1.13-0.26,2.27-1.18,3.02
			c-0.93,0.76-2.18,1.05-3.32,1.35c-2.96,0.78-5.94,1.5-8.92,2.22c-23.7,5.67-47.79,9.71-72.05,12.04
			c-13.64,1.31-27.33,2.09-41.03,2.34C309.31,439.27,309.31,442.27,311.24,442.24L311.24,442.24z"/>
	</g>
</g>
<g>
	<g>
		<path d="M418.37,212.01c-3.31,18.95-1.63,38.74,5.23,56.75c5.92,15.52,15.65,29.69,28.96,39.75
			c13.09,9.89,29.38,14.71,45.73,14.32c16.18-0.39,32.34-5.71,45.22-15.58c12.67-9.71,22.04-23.24,27.34-38.25
			c5.33-15.09,6.4-31.54,2.89-47.16c-3.52-15.67-11.42-30.24-22.17-42.13c-11.33-12.53-26.27-22.59-42.68-26.97
			c-8.78-2.34-17.9-2.75-26.84-1.09c-8.64,1.61-16.93,5.07-24.34,9.76c-14.95,9.47-26.02,23.96-33.65,39.75
			c-1.87,3.87-3.55,7.83-5.07,11.85c-0.68,1.81,2.21,2.59,2.89,0.8c6-15.85,14.8-30.96,27.51-42.36
			c12.58-11.29,29.34-18.62,46.44-17.78c17.02,0.84,33.35,9.47,45.94,20.59c11.55,10.2,20.67,23.23,25.93,37.73
			c5.26,14.46,6.5,30.1,3.33,45.17c-3.15,15-10.33,29.19-20.99,40.25c-10.88,11.29-25.15,18.64-40.57,21.33
			c-15.29,2.67-31.59,0.65-45.44-6.5c-14.25-7.36-25.38-19.74-32.82-33.8c-8.4-15.88-12.2-34.1-11.45-52.01
			c0.19-4.57,0.68-9.11,1.47-13.61C421.59,210.92,418.7,210.11,418.37,212.01L418.37,212.01z"/>
	</g>
</g>
<g>
	<g>
		<path d="M423.19,163.03c1.58-0.06,2.66,1.48,2.7,2.96c0.05,1.94-1.35,3.66-2.67,4.94c-2.97,2.87-6.77,4.79-10.54,6.37
			c-7.14,3-14.86,5.11-20.8,10.33c-5.06,4.45-8.19,11.78-5.84,18.44c1.09,3.07,3.24,5.35,6.07,6.92c2.59,1.44,5.47,2.3,8.04,3.8
			c3.03,1.78,4.38,4.53,3.22,8.01c-1.29,3.89-4.34,7.39-6.82,10.59c-4.99,6.43-10.46,12.47-15.47,18.9
			c-4.91,6.3-9.58,13.05-12.4,20.58c-1.46,3.91-2.21,8.26-1.03,12.35c0.99,3.45,3.2,6.44,5.86,8.81c5.26,4.7,12.04,7.37,18.53,9.89
			c6.44,2.5,13.05,4.73,19.1,8.11c6.09,3.4,11.2,8.07,14.08,14.52c3.31,7.42,3.73,15.72,6.39,23.35c2.23,6.4,6.08,13.04,12.51,15.95
			c7.46,3.38,15.79,0.84,22.39-3.3c6.93-4.35,12.69-10.31,17.96-16.5c2.68-3.14,5.25-6.37,7.86-9.56c1.21-1.48,2.38-3.17,3.85-4.41
			c1.96-1.66,4.01-0.61,5.98,0.47c7.62,4.18,14.75,9.26,22.87,12.48c7.45,2.96,16.29,4.22,23.92,1.17
			c13.26-5.3,17.22-20.18,20.33-32.72c1.83-7.36,3.69-14.72,7.23-21.48c3.76-7.18,9.07-12.76,16.13-16.76
			c7.01-3.96,14.58-6.8,20.89-11.91c5.69-4.6,10.36-10.75,12.37-17.85c4.43-15.71-5.37-31.27-16.97-41.05
			c-6.47-5.45-13.7-9.87-20.82-14.4c-3.55-2.26-7.13-4.53-10.48-7.08c-3.16-2.4-5.98-5.38-6.3-9.53c-0.34-4.35,1.01-8.9,2.17-13.05
			c1.21-4.34,2.73-8.61,4.56-12.73c3.27-7.35,8.74-15.57,6.28-23.97c-1.8-6.14-7.33-9.7-13.3-11.08
			c-6.84-1.58-13.82-0.76-20.64,0.45c-4.49,0.8-8.93,1.85-13.31,3.12c-4.37,1.28-8.56,2.96-12.85,4.49
			c-1.9,0.68-3.74,0.94-5.51-0.18c-1.45-0.91-2.56-2.35-3.56-3.71c-2.25-3.05-4.56-6-7.29-8.64c-5.36-5.19-12.07-9.38-19.5-10.72
			c-6.63-1.2-13.76-0.09-19.56,3.42c-2.86,1.73-5.35,4.06-7.19,6.86c-1.71,2.61-2.77,5.64-3.67,8.61
			c-1.6,5.27-2.54,12.09-6.99,15.85c-5.07,4.29-12.15,1.17-17.73-0.16c-2.97-0.71-6.21-1.21-9.19-0.27
			c-2.99,0.94-5.38,3.18-6.52,6.1c-2.3,5.9,0.27,12.9,2.77,18.3c0.81,1.75,3.4,0.23,2.59-1.51c-1.38-2.99-2.54-6.17-3.01-9.44
			c-0.41-2.81-0.28-6.07,1.65-8.34c4.27-5.03,11.89-1.58,17.09-0.34c3.08,0.73,6.33,1.21,9.45,0.42c2.76-0.69,5.12-2.36,6.84-4.6
			c3.63-4.72,4.56-10.99,6.35-16.52c0.93-2.86,2.09-5.7,4.02-8.03c2.09-2.53,4.81-4.46,7.81-5.77c6.35-2.77,13.53-2.6,19.94-0.14
			c7,2.68,12.87,7.86,17.47,13.67c2.11,2.66,3.87,5.86,6.86,7.65c3.8,2.26,7.6,0.38,11.32-1.02c8.38-3.16,17.09-5.43,25.94-6.76
			c6.21-0.93,12.85-1.2,18.82,1.07c2.56,0.98,5.01,2.6,6.55,4.91c2.12,3.2,2.29,7.05,1.4,10.7c-1.02,4.16-3.05,7.97-4.88,11.81
			c-1.91,4.01-3.56,8.14-4.91,12.37c-1.33,4.15-2.49,8.45-3.07,12.78c-0.53,3.92-0.18,7.9,2.16,11.22c2.2,3.13,5.39,5.35,8.49,7.49
			c3.46,2.39,7.02,4.64,10.58,6.89c13.37,8.48,27.79,18.06,32.77,34c2.26,7.24,1.83,14.93-1.8,21.65
			c-3.56,6.6-9.35,11.63-15.82,15.27c-6.94,3.91-14.54,6.69-20.73,11.84c-5.92,4.93-9.97,11.67-12.84,18.74
			c-2.7,6.66-4.16,13.67-5.97,20.6c-1.66,6.35-3.6,12.84-7.33,18.32c-4.02,5.91-10.26,9.55-17.44,9.87c-8.4,0.38-16.26-3-23.43-7.04
			c-3.77-2.13-7.43-4.45-11.18-6.61c-3.38-1.95-7.41-4.6-11.14-1.92c-1.55,1.12-2.71,2.7-3.92,4.16c-1.29,1.56-2.56,3.14-3.84,4.71
			c-2.55,3.14-5.13,6.27-7.84,9.26c-8.86,9.77-26.71,25.26-39.05,11.77c-4.98-5.44-6.7-12.87-8.22-19.86
			c-1.65-7.61-3.47-15.22-8.56-21.34c-8.71-10.47-23-13.71-35.01-18.78c-6.2-2.62-13.2-5.9-16.67-11.99
			c-4.23-7.44,0.47-16.18,4.39-22.69c4.12-6.84,9.24-12.98,14.36-19.08c2.52-3.01,5.05-6.01,7.48-9.1c2.47-3.13,5.08-6.34,6.98-9.86
			c1.79-3.3,2.73-7.31,0.63-10.71c-1.52-2.45-4.12-3.85-6.68-4.99c-2.64-1.18-5.62-2.15-7.76-4.17c-2.29-2.16-3.06-5.33-2.83-8.39
			c0.57-7.56,7-12.32,13.32-15.31c7.17-3.39,15.16-5.19,21.55-10.1c2.74-2.11,5.63-5,5.69-8.7c0.05-3.13-2.42-6.26-5.69-6.13
			C421.27,160.1,421.26,163.1,423.19,163.03L423.19,163.03z"/>
	</g>
</g>
<g>
	<g>
		<path d="M487.2,233.77c-0.4-7.07,9.53-12.53,14.52-6.67c2.05,2.4,2.62,5.99,1.71,8.97c-1.26,4.17-5.44,5.63-9.4,6.14
			c-7.3,0.93-16.93,0.1-21.69-6.32c-5.09-6.87-1.3-16.71,5.39-20.95c7.74-4.91,18.14-4.13,26.29-0.67
			c8.5,3.61,15.05,10.7,16.28,20.06c2.59,19.71-15.41,35.23-32.53,40.63c-8.89,2.8-18.86,3.37-27.57-0.38
			c-8.05-3.46-14.06-10.39-17.43-18.37c-7.9-18.71-0.68-39.4,9.82-55.5c5.08-7.8,11.39-15.06,19.45-19.88
			c8.79-5.26,19.25-7.09,29.38-6.19c17.33,1.55,33.73,11.64,43.18,26.21c10.26,15.83,11.79,36.73,4.37,54.03
			c-7.38,17.19-22.91,28.86-38.82,37.68c-3.94,2.18-7.96,4.23-12.01,6.2c-1.74,0.85-0.22,3.43,1.51,2.59
			c17.75-8.64,35.9-19.12,47.04-35.98c11.45-17.33,13.02-40.28,4.32-59.11c-7.99-17.29-24.82-30.12-43.46-33.75
			c-10.58-2.06-21.77-1.24-31.71,3.02c-9.56,4.1-17.16,11.51-23.19,19.82c-12.19,16.79-20.99,39.42-13.43,59.94
			c3.23,8.77,9.23,16.69,17.66,21.02c9.23,4.74,20.09,4.81,29.93,2.07c18.86-5.24,38.63-21.85,36.6-43.25
			c-0.48-5.06-2.22-9.89-5.32-13.94c-2.92-3.81-6.83-6.8-11.14-8.88c-8.79-4.24-19.88-5.49-28.83-1.02
			c-7.92,3.95-13.5,13.87-10.19,22.63c3.26,8.64,12.97,11.59,21.44,11.58c4.73-0.01,10.2-0.53,13.93-3.75
			c2.82-2.45,3.92-6.45,3.47-10.07c-0.46-3.67-2.44-7.31-5.85-9c-3.68-1.83-8.12-1.15-11.43,1.17c-3.23,2.26-5.49,5.89-5.26,9.93
			C484.31,235.69,487.31,235.7,487.2,233.77L487.2,233.77z"/>
	</g>
</g>
</svg>
